<svg width="753" height="328" viewBox="0 0 753 328" fill="none" xmlns="http://www.w3.org/2000/svg">
<path d="M72.9942 312.974L78.4104 221.256C78.6922 216.744 75.0041 211.974 70.0865 211.195C67.2572 210.739 59.8181 210.863 56.4672 211.767C51.353 213.259 50.4417 217.607 49.3477 221.673L43.9314 313.391C43.9314 313.391 49.5065 309.225 58.6921 308.962C68.2127 308.61 72.9942 312.974 72.9942 312.974Z" fill="#E7EFF2"/>
<path d="M42.8391 314.79C42.9141 313.548 42.9653 312.202 43.0402 310.96C43.2376 308.686 43.2992 306.338 43.4966 304.063C43.7927 300.652 43.9767 297.272 44.2491 293.756C44.753 287.068 45.121 280.307 45.6249 273.619C46.4693 261.621 47.5489 228.128 48.1649 221.411C49.2876 210.115 73.4342 208.05 76.7664 219.589C77.1397 220.709 76.08 239.095 75.8856 243.478L74.7681 262.657C74.1551 271.483 73.4064 280.235 72.6576 288.987C72.2799 293.087 72.0142 297.156 71.7486 301.225C71.4592 305.189 71.4414 309.303 70.7921 313.253C70.5813 314.42 71.8749 315.404 73.043 315.312C74.2961 315.143 75.6612 314.273 75.5357 313.196C75.224 309.727 75.5847 306.076 75.7212 302.486C75.8577 298.896 76.1063 295.276 76.3312 291.551C76.8046 284.205 77.278 276.86 77.8635 269.484C78.6501 258.279 79.6371 246.909 79.5917 235.706L80.6648 218.427L84.0648 161.101C84.3372 157.585 82.4566 154.538 79.5809 152.87C79.0139 152.468 78.4706 152.17 78.0395 151.842C76.386 150.844 74.5322 150.011 72.6138 149.418C68.889 148.201 64.7227 147.658 60.6581 148.087C56.3456 148.472 52.3181 150.112 50.4532 153.946C50.3003 154.321 50.0353 154.725 49.9062 155.204C48.629 157.436 47.9834 159.831 47.5619 162.165C47.0521 164.635 46.6543 167.074 46.5044 169.557C46.0043 174.689 45.7282 179.76 45.3638 184.966C44.6589 195.483 44.066 205.97 43.4494 216.352C42.1515 237.356 40.9895 258.434 39.6916 279.438C38.9117 291.197 38.0197 302.985 37.4877 314.788C37.2562 317.96 42.7197 317.931 42.8391 314.79Z" fill="#F6CF3C"/>
<path d="M73.305 202.537C72.9999 202.2 73.0626 201.974 72.6724 201.765C72.2597 201.458 71.7619 201.278 71.2416 200.999C70.3535 200.61 69.3579 200.249 68.3846 199.988C66.3081 199.394 63.9986 199.282 61.734 199.367C59.5771 199.423 57.2722 199.832 55.1424 200.509C54.0662 200.798 53.035 201.284 52.1114 201.741C51.2954 202.169 49.9188 202.643 49.6456 203.449C49.5202 203.901 49.8028 204.139 50.2782 204.22C51.0989 204.314 52.0627 203.532 52.7711 203.133C53.6948 202.675 54.6408 202.317 55.717 202.028C57.6316 201.41 59.7212 201.058 61.7481 200.932C63.775 200.806 65.7617 201.005 67.578 201.459C68.5288 201.622 69.502 201.884 70.39 202.273C70.8879 202.454 71.2556 202.564 71.7535 202.744C72.2513 202.924 72.5741 202.838 73.0495 202.919C73.2872 202.96 73.4575 202.705 73.305 202.537Z" fill="#E7EFF2"/>
<path d="M75.4329 159.901C74.9071 159.094 73.994 158.603 73.1889 158.083C72.1453 157.522 70.9937 156.99 69.8645 156.558C67.498 155.723 64.9603 155.146 62.3818 154.896C58.3947 154.501 53.4248 155.85 50.5012 158.648C49.4696 159.667 51.0165 160.936 51.9625 160.046C54.5844 157.435 58.8428 156.49 62.4609 156.774C64.801 156.983 66.9922 157.549 69.2058 158.214C70.2046 158.576 71.2033 158.938 72.2245 159.4C73.1152 159.791 73.9203 160.311 74.8743 160.475C75.2432 160.585 75.6306 160.269 75.4329 159.901Z" fill="#E7EFF2"/>
<path d="M72.7647 223.411C72.2576 233.476 71.8413 243.405 71.3341 253.47C70.6895 266.138 69.562 278.824 68.5491 291.479C67.9878 298.1 67.4026 304.616 66.9561 311.207C66.8274 312.245 68.6446 312.204 68.7732 311.165C69.6763 299.097 70.5555 286.924 71.3199 274.782C72.1083 262.745 73.0114 250.677 73.5463 238.596C73.7305 233.527 73.9147 228.457 73.6159 223.405C73.6108 222.849 72.7596 222.854 72.7647 223.411Z" fill="#D8E5E5"/>
<path d="M68.2621 219.91C67.5749 222.771 67.7864 225.838 67.582 228.681C67.5162 231.599 67.4265 234.412 67.246 237.36C66.9997 243.227 66.7774 249.199 66.4164 255.096C65.8092 266.86 64.9725 278.685 63.8825 290.467C63.2063 297.118 62.6688 303.844 61.7632 310.557C61.6584 311.7 63.7283 311.702 63.833 310.558C65.8745 286.92 67.8012 263.313 68.7623 239.742C68.871 236.478 68.9557 233.109 69.0643 229.845C69.173 226.581 69.6019 223.119 68.9075 220.071C69.0172 219.484 68.3958 219.427 68.2621 219.91Z" fill="#D8E5E5"/>
<path d="M59.702 219.789C59.292 222.797 59.2493 225.818 59.0682 228.765C58.8872 231.711 58.73 234.763 58.549 237.71C58.0724 243.634 57.5958 249.558 56.8663 255.438C55.6364 267.138 54.063 278.93 53.0859 290.674C52.5474 297.395 52.1233 304.085 51.8138 310.744C51.7089 311.887 53.7509 311.783 53.7413 310.671C53.7307 298.859 55.118 286.783 56.3241 274.978C57.6446 263.142 59.1036 251.381 59.9423 239.564C60.1423 236.166 60.4808 232.843 60.5664 229.476C60.6758 226.214 60.876 222.817 60.5035 219.573C60.6371 219.091 59.8356 219.307 59.702 219.789Z" fill="#D8E5E5"/>
<path d="M64.8048 219.428C64.3947 222.437 64.3521 225.458 64.171 228.404C63.99 231.351 63.8328 234.403 63.6518 237.349C63.1752 243.274 62.6986 249.198 61.9692 255.078C60.7393 266.778 59.1659 278.571 58.1888 290.314C57.6503 297.035 57.2263 303.725 56.9168 310.385C56.8119 311.528 58.854 311.424 58.8444 310.312C58.8337 298.5 60.221 286.423 61.4271 274.618C62.7476 262.783 64.2065 251.021 65.0452 239.203C65.2452 235.806 65.5837 232.482 65.6692 229.116C65.7787 225.854 65.9788 222.456 65.6063 219.213C65.6254 218.762 64.8238 218.977 64.8048 219.428Z" fill="#D8E5E5"/>
<path d="M54.0031 222.989C53.6803 233.332 53.5626 243.508 52.7576 253.87C51.8717 265.479 50.5036 277.107 49.274 288.809C48.4686 296.495 47.6631 304.181 46.7192 311.792C46.5905 312.83 48.5429 312.863 48.6477 311.72C49.9057 298.003 51.4166 284.331 52.8129 270.689C53.8232 260.161 54.8334 249.632 55.247 239.153C55.4752 233.741 55.6795 228.223 54.8528 222.983C54.7334 222.458 54.0222 222.538 54.0031 222.989Z" fill="#D8E5E5"/>
<path d="M44.2881 184.5C44.7578 183.919 50.4491 181.322 57.5007 180.5M80.0007 188.5C74.0689 180.763 65.0129 179.624 57.5007 180.5M57.5007 0V180.5" stroke="#0D0842"/>
<path d="M149.715 216.327C149.776 211.751 152.607 207.884 156.212 207.643L164.857 207.045C168.35 206.841 171.18 210.38 171.203 214.816L170.59 277.558L172.392 277.438C172.773 276.177 172.928 274.988 173.025 273.59L174.55 117.363C174.571 111.774 171.252 107.366 167.168 107.645L155.987 108.37C151.903 108.649 148.462 113.394 148.441 118.984L146.917 275.211C146.932 276.573 147.06 277.9 147.383 279.049L149.185 278.929L149.715 216.327Z" fill="#60C697"/>
<path d="M150.96 216.784C151.02 212.218 153.837 208.36 157.423 208.12L166.025 207.523C169.5 207.319 172.315 210.85 172.338 215.276L171.752 277.529L174.133 277.334L175.033 178.378C175.054 172.802 171.751 168.404 167.688 168.682L156.565 169.405C152.502 169.684 149.078 174.419 149.057 179.996L148.158 278.952L150.539 278.757L150.96 216.784Z" fill="#60C697"/>
<path d="M171.67 276.6L172.607 180.738C172.609 175.959 169.871 172.285 166.278 172.526L157.661 173.123C154.181 173.327 151.276 177.328 151.162 182.143L150.226 278.005C150.226 278.005 154.191 273.436 160.87 272.891C167.997 272.202 171.67 276.6 171.67 276.6Z" fill="#E7EFF2"/>
<path d="M170.488 170.053C170.248 173.563 170.492 177.035 170.478 180.473C170.465 183.911 170.739 187.488 171.096 190.924C171.583 197.867 171.986 204.952 172.103 211.898C172.51 225.964 172.177 240.035 171.503 254.214C171.178 262.216 170.596 270.184 170.013 278.153C169.821 280.961 174.318 280.683 174.51 277.875C176.455 249.443 177.546 221.052 175.508 192.963C175.259 189.035 174.866 185.038 174.133 181.149C173.71 179.222 173.203 177.437 172.779 175.51C172.356 173.583 171.963 171.762 171.312 169.907C171.163 169.381 170.453 169.492 170.488 170.053Z" fill="#60C697"/>
<path d="M147.868 112.74C148.268 112.506 148.561 112.305 148.99 112.169L148.962 112.07C148.561 112.305 148.161 112.539 147.868 112.74C147.789 112.873 147.76 112.774 147.868 112.74Z" fill="#F3B953"/>
<path d="M152.238 110.331C150.207 111.433 148.926 113.44 148.555 115.616C148.047 118.177 147.765 120.668 147.483 123.158C146.812 128.629 146.284 134.17 145.869 139.675C145.128 150.999 144.982 162.249 144.949 173.463C144.833 184.818 145.056 196.065 144.797 207.35C144.568 218.741 144.565 230.06 144.848 241.516C145.009 247.753 145.088 254.13 145.505 260.399C145.658 263.552 145.953 266.774 146.105 269.926C146.287 273.184 146.385 276.582 147.133 279.66C147.673 282.004 151.126 281.137 151.324 278.788C151.63 275.947 151.34 273.181 151.194 270.484C151.017 267.682 150.984 264.949 150.921 262.111C150.711 256.575 150.501 251.04 150.404 245.469C150.097 234.363 150.017 223.185 150.193 212.04C150.398 201 150.377 190.032 150.469 179.028C150.418 167.955 150.397 156.987 150.829 145.875C151.066 139.741 151.559 133.64 152.165 127.503C152.441 124.557 152.943 121.54 153.303 118.453C153.405 117.506 153.477 116.454 153.609 115.612C153.824 114.63 153.67 113.65 154.426 112.838C155.713 111.286 153.959 109.442 152.238 110.331Z" fill="#60C697"/>
<path d="M168.396 111.188C167.978 110.118 167.157 109.286 166.257 108.589C165.356 107.893 164.428 107.095 163.368 106.668C160.868 105.717 157.975 105.878 155.218 106.104C152.704 106.361 150.416 107.422 148.762 109.484C147.374 111.242 145.649 114.312 147.239 116.211C147.596 116.644 148.407 116.603 148.81 116.364C150.395 115.31 150.343 113.028 151.571 111.54C152.851 109.817 154.661 109.566 156.607 109.38C158.66 109.161 160.85 109.007 162.862 109.895C164.494 110.686 165.92 112.419 168.026 111.964C168.241 111.895 168.452 111.389 168.396 111.188Z" fill="#60C697"/>
<path d="M160.867 109.801C162.995 109.015 165.464 110.296 166.737 111.727C168.387 113.611 168.709 116.487 168.828 119.083C169.198 125.609 169.226 132.243 169.368 138.84C169.599 152.282 169.459 165.726 169.092 179.241C169.025 182.927 168.845 186.649 168.778 190.335C168.688 192.196 168.712 194.021 168.622 195.882C168.634 196.794 168.675 197.812 168.801 198.688C168.956 199.67 169.452 200.544 169.637 201.631C169.792 202.613 171.472 202.426 171.718 201.547C171.963 200.667 172.352 199.857 172.597 198.978C172.842 198.099 172.914 197.046 172.903 196.133C172.993 194.272 172.969 192.447 173.059 190.586C173.155 187.006 173.138 183.461 173.264 179.985C173.344 172.859 173.453 165.839 173.418 158.749C173.467 151.518 173.403 144.323 173.309 137.023C173.291 133.478 173.161 129.969 173.03 126.46C172.959 123.161 172.888 119.863 172.476 116.671C172.064 113.48 171.024 110.258 168.46 108.205C165.955 106.362 162.756 105.998 159.988 108.017C159.025 108.55 159.617 110.196 160.867 109.801Z" fill="#60C697"/>
<path d="M172.389 184.23C172.972 182.487 172.68 180.583 172.445 178.883C172.101 177.218 171.482 175.419 170.513 174.067C168.131 170.618 164.299 169.635 160.202 169.404C158.154 169.288 156.105 169.173 154.117 169.704C151.912 170.305 150.236 171.957 148.971 173.808C146.736 176.862 143.358 183.06 146.853 185.817C147.458 186.287 148.523 186.277 149.006 185.454C149.461 184.53 149.674 184.017 149.883 183.062C150.039 182.345 150.277 181.491 150.542 180.739C151.045 179.134 151.85 177.763 152.764 176.358C153.517 175.227 154.355 174.401 155.69 174.081C157.27 173.792 158.964 173.911 160.521 173.964C163.416 174.139 165.743 174.83 167.35 177.198C168.82 179.499 168.96 182.562 170.591 184.589C171.007 185.232 172.043 185.119 172.389 184.23Z" fill="#60C697"/>
<path d="M168.131 163.058C168.298 161.994 168.457 160.484 167.84 159.556C168.105 159.248 168.262 158.974 168.145 158.561C167.48 156.637 165.46 156.152 163.685 155.701C161.803 155.284 159.9 155.211 157.949 155.377C156.105 155.51 153.829 155.779 152.22 156.736C149.993 158 150.941 160.508 151.361 162.397C151.596 163.221 152.507 163.945 153.429 163.878C155.489 163.678 157.715 163.649 159.725 163.689C161.736 163.728 163.991 163.803 165.932 164.425C166.726 164.736 167.933 164.019 168.131 163.058Z" fill="#E7EFF2"/>
<path d="M153.841 112.467C153.146 113.487 153.192 114.956 153.036 116.146C152.939 117.546 152.813 118.841 152.829 120.205C152.719 122.864 152.668 125.733 153.037 128.353C153.343 130.309 156.33 129.585 156.421 127.73C156.532 125.071 156.162 122.451 156.047 119.864C155.948 118.641 155.932 117.277 155.833 116.054C155.763 114.935 155.747 113.571 155.198 112.491C154.908 111.899 154.174 111.905 153.841 112.467Z" fill="#E7EFF2"/>
<path d="M158.765 112.601C157.313 116.14 157.447 120.539 157.966 124.131C158.118 125.107 158.689 125.835 159.758 125.721C160.602 125.679 161.578 124.798 161.568 123.89C161.406 122.006 161.214 120.017 161.164 118.097C161.115 116.177 161.065 114.257 160.678 112.445C160.414 111.505 159.151 111.795 158.765 112.601Z" fill="#E7EFF2"/>
<path d="M163.511 112.573C162.803 114.852 163.06 117.508 162.974 119.817C162.931 120.971 163.03 122.195 163.017 123.454C163.003 124.713 162.96 125.867 163.539 127.052C164 127.817 165.357 127.841 165.826 126.893C166.349 125.7 166.309 124.686 166.352 123.531C166.366 122.272 166.379 121.013 166.251 119.685C166.082 117.343 166.305 114.648 165.461 112.522C165.053 111.511 163.839 111.556 163.511 112.573Z" fill="#E7EFF2"/>
<path d="M166.177 179.959C165.961 183.118 166.175 186.485 166.215 189.677C166.226 192.764 166.35 195.815 166.361 198.902C166.412 205.182 166.607 211.53 166.658 217.809C166.844 230.227 166.433 242.719 166.363 255.104C166.282 262.226 166.172 269.243 165.948 276.296C165.912 277.91 168.473 277.787 168.51 276.173C168.777 263.612 168.902 250.981 168.769 238.317C168.718 232.038 168.523 225.69 168.472 219.41C168.421 213.131 168.37 206.852 168.175 200.503C168.045 196.996 167.915 193.489 167.785 189.981C167.685 186.579 167.668 183.036 167.228 179.741C167.163 179.075 166.142 179.398 166.177 179.959Z" fill="#D8E5E5"/>
<path d="M162.149 175.632C162.162 201.38 162.175 227.128 161.932 252.842C161.881 260.069 161.83 267.296 161.779 274.522C161.743 276.136 164.274 275.908 164.34 274.399C164.44 248.615 164.201 222.939 163.818 197.194C163.725 189.898 163.549 182.743 163.343 175.483C163.165 174.853 162.084 174.966 162.149 175.632Z" fill="#D8E5E5"/>
<path d="M157.922 177.691C157.05 180.714 157.377 184.045 157.357 187.027C157.368 190.114 157.379 193.201 157.389 196.287C157.357 202.707 157.438 209.091 157.405 215.511C157.394 228.105 157.299 240.839 157.288 253.433C157.237 260.66 157.157 267.782 157.106 275.008C157.099 276.727 159.774 276.568 159.78 274.849C160 249.485 159.849 224.123 159.442 198.728C159.425 195.186 159.295 191.678 159.279 188.136C159.256 186.312 159.263 184.593 159.126 182.804C158.989 181.016 158.996 179.297 158.519 177.617C158.46 177.407 158.09 177.41 157.922 177.691Z" fill="#D8E5E5"/>
<path d="M154.747 182.886C154.567 184.431 154.328 185.766 154.261 187.274C154.195 188.783 154.015 190.328 153.979 191.942C153.846 194.96 153.714 197.978 153.581 200.996C153.4 206.891 153.189 212.681 153.234 218.504C153.128 230.327 153.278 242.184 153.542 254.004C153.599 260.739 153.799 267.544 154.083 274.207C154.071 275.47 156.149 275.385 156.018 274.053C155.12 250.415 155.332 226.768 155.401 203.053C155.415 199.615 155.458 196.282 155.358 192.88C155.364 191.161 155.371 189.442 155.407 187.828C155.414 186.109 155.307 184.426 155.2 182.742C155.171 182.637 154.8 182.64 154.747 182.886Z" fill="#D8E5E5"/>
<path d="M144.081 145C144.081 145 150.11 140.394 157.788 139.743M172.788 145C167.842 140.434 162.504 139.343 157.788 139.743M157.788 1V139.743" stroke="#0D0842"/>
<path d="M223.37 312.295L215.344 208.326C214.9 203.226 214.869 193.225 219.921 192.674L236.492 191.039C241.544 190.488 246.494 200.084 246.939 205.184L254.113 309.088C254.113 309.088 248.086 305.123 238.387 305.922C228.266 306.755 223.37 312.295 223.37 312.295Z" fill="#E7EFF2"/>
<path d="M241.266 129.908C237.538 126.128 229.984 123.589 223.888 124.19C218.901 124.707 207.582 130.856 206.558 136.624C206.194 137.465 205.985 138.565 205.898 139.385C205.62 141.574 205.62 143.741 205.49 146.055C205.489 152.558 205.765 159.041 206.18 165.512C206.924 179.275 208.222 192.996 208.966 206.759C209.761 219.163 210.843 231.681 212.055 244.053C213.25 256.156 214.306 268.269 215.362 280.383C215.916 286.844 216.739 293.149 217.709 299.578C217.96 301.32 218.203 302.928 218.593 304.659C218.602 304.794 218.619 305.064 218.628 305.199C218.835 308.434 219.181 311.66 220.352 314.687C220.855 316.003 222.121 316.177 223.448 315.127C223.977 314.681 224.107 312.367 224.073 311.828L215.634 210.721C215.548 209.372 215.453 207.889 215.366 206.541C215.497 202.06 219.955 197.655 227.579 194.769C236.156 191.539 243.006 198.332 244.602 201.462C245.061 204.272 245.529 207.217 245.988 210.027L247.667 229.68C247.684 229.95 247.693 230.085 247.71 230.354C248.039 235.478 248.376 240.736 248.844 245.849C249.64 256.085 250.575 266.311 251.371 276.547C251.882 282.334 252.262 288.267 252.634 294.064C253.023 300.132 253.126 306.085 253.793 312.131C254.088 314.548 257.548 314.148 257.678 311.835C257.757 306.544 257.411 301.151 257.065 295.758C256.728 290.5 256.391 285.242 255.915 279.994C255.11 269.623 254.175 259.397 253.37 249.026C252.574 238.79 252.055 228.532 251.398 218.285C251.268 216.263 251.008 214.386 250.74 212.374C251.304 210.299 251.001 207.747 250.863 205.59C250.559 203.039 250.118 200.499 249.945 197.802C249.399 191.476 249.556 185.231 249.15 178.894C248.337 166.22 246.821 153.465 245.453 140.833C245.116 137.743 244.639 134.663 242.94 132.083C242.48 131.441 242.021 130.798 241.57 130.291C241.422 130.167 241.414 130.032 241.266 129.908Z" fill="#F46041"/>
<path d="M219.659 205.062C220.059 217.788 222.26 230.382 223.4 242.918C224.03 250.064 224.35 257.097 224.679 264.264C224.999 271.297 225.469 278.319 225.789 285.352C226.182 293.464 226.724 301.566 227.117 309.679C227.189 310.76 229.14 310.617 229.067 309.537C228.268 295.347 227.469 281.158 226.819 266.957C226.056 253.308 225.434 239.513 223.471 225.951C222.4 218.973 221.18 212.006 220.419 205.142C220.383 204.602 219.632 204.656 219.659 205.062Z" fill="#D8E5E5"/>
<path d="M224.498 198.208C224.142 201.897 224.677 205.386 225.071 209.021C225.457 212.521 225.842 216.021 226.086 219.667C226.866 226.802 227.496 233.948 227.975 241.105C229.216 255.126 230.166 269.305 231.258 283.337C231.809 291.574 232.202 299.687 233.054 307.903C233.118 308.848 234.769 308.727 234.705 307.782C234.037 293.311 232.769 278.884 231.651 264.447C230.56 250.414 229.46 236.247 228.068 222.236C227.647 218.196 227.375 214.145 226.954 210.105C226.541 206.2 226.27 202.149 225.107 198.299C225.08 197.894 224.63 197.927 224.498 198.208Z" fill="#D8E5E5"/>
<path d="M229.975 197.276C230.798 211.737 232.523 226.131 233.647 240.57C234.762 254.873 235.566 269.063 236.23 283.399C236.634 291.648 236.889 299.907 237.293 308.156C237.366 309.236 239.321 309.094 239.248 308.013C238.062 279.195 236.877 250.377 233.887 221.69C233.031 213.474 232.025 205.269 230.727 197.222C230.55 196.827 229.948 196.871 229.975 197.276Z" fill="#D8E5E5"/>
<path d="M234.752 197.906C234.845 201.563 235.686 205.165 236.078 208.799C236.47 212.434 237.011 216.057 237.403 219.692C238.17 226.691 238.936 233.69 239.402 240.712C240.486 254.743 241.129 268.943 241.913 282.996C242.293 290.973 242.832 299.075 243.361 307.041C243.442 308.256 245.537 308.102 245.456 306.887C243.412 278.408 243.023 249.943 239.782 221.552C239.363 217.512 238.795 213.484 238.226 209.455C237.667 205.561 237.089 201.398 235.94 197.683C235.596 197.03 234.707 197.231 234.752 197.906Z" fill="#D8E5E5"/>
<path d="M241.059 200.297C240.845 203.841 241.242 207.476 241.488 211.122C241.726 214.633 241.972 218.28 242.36 221.78C242.985 228.791 243.619 235.938 244.094 242.96C245.185 256.859 246.284 270.892 247.224 284.802C247.489 288.718 247.754 292.635 247.868 296.562C248.005 298.587 247.982 300.489 248.119 302.515C248.256 304.54 248.242 306.577 248.68 308.581C248.867 309.11 249.771 309.044 249.885 308.493C250.409 305.063 249.862 301.438 249.784 298.051C249.547 294.54 249.451 290.883 249.214 287.372C248.739 280.349 248.255 273.192 247.781 266.17C246.672 252.001 245.572 237.967 244.313 223.81C244.048 219.893 243.633 215.988 243.218 212.082C242.802 208.177 242.679 204.115 241.803 200.107C241.776 199.702 241.182 199.881 241.059 200.297Z" fill="#D8E5E5"/>
<path d="M206.6 168.5C206.6 168.5 214.881 159.794 226.6 159.403M247.6 168.5C240.11 161.359 232.864 159.193 226.6 159.403M226.6 159.403V0" stroke="#0D0842"/>
<path d="M312.994 312.974L318.41 221.256C318.692 216.744 315.004 211.974 310.087 211.195C307.257 210.739 299.818 210.863 296.467 211.767C291.353 213.259 290.442 217.607 289.348 221.673L283.931 313.391C283.931 313.391 289.507 309.225 298.692 308.962C308.213 308.61 312.994 312.974 312.994 312.974Z" fill="#E7EFF2"/>
<path d="M282.839 314.79C282.914 313.548 282.965 312.202 283.04 310.96C283.238 308.686 283.299 306.338 283.497 304.063C283.793 300.652 283.977 297.272 284.249 293.756C284.753 287.068 285.121 280.307 285.625 273.619C286.469 261.621 287.549 228.128 288.165 221.411C289.288 210.115 313.434 208.05 316.766 219.589C317.14 220.709 316.08 239.095 315.886 243.478L314.768 262.657C314.155 271.483 313.406 280.235 312.658 288.987C312.28 293.087 312.014 297.156 311.749 301.225C311.459 305.189 311.441 309.303 310.792 313.253C310.581 314.42 311.875 315.404 313.043 315.312C314.296 315.143 315.661 314.273 315.536 313.196C315.224 309.727 315.585 306.076 315.721 302.486C315.858 298.896 316.106 295.276 316.331 291.551C316.805 284.205 317.278 276.86 317.864 269.484C318.65 258.279 319.637 246.909 319.592 235.706L320.665 218.427L324.065 161.101C324.337 157.585 322.457 154.538 319.581 152.87C319.014 152.468 318.471 152.17 318.039 151.842C316.386 150.844 314.532 150.011 312.614 149.418C308.889 148.201 304.723 147.658 300.658 148.087C296.346 148.472 292.318 150.112 290.453 153.946C290.3 154.321 290.035 154.725 289.906 155.204C288.629 157.436 287.983 159.831 287.562 162.165C287.052 164.635 286.654 167.074 286.504 169.557C286.004 174.689 285.728 179.76 285.364 184.966C284.659 195.483 284.066 205.97 283.449 216.352C282.152 237.356 280.989 258.434 279.692 279.438C278.912 291.197 278.02 302.985 277.488 314.788C277.256 317.96 282.72 317.931 282.839 314.79Z" fill="#F6CF3C"/>
<path d="M313.305 202.537C313 202.2 313.063 201.974 312.672 201.765C312.26 201.458 311.762 201.278 311.242 200.999C310.354 200.61 309.358 200.249 308.385 199.988C306.308 199.394 303.999 199.282 301.734 199.367C299.577 199.423 297.272 199.832 295.142 200.509C294.066 200.798 293.035 201.284 292.111 201.741C291.295 202.169 289.919 202.643 289.646 203.449C289.52 203.901 289.803 204.139 290.278 204.22C291.099 204.314 292.063 203.532 292.771 203.133C293.695 202.675 294.641 202.317 295.717 202.028C297.632 201.41 299.721 201.058 301.748 200.932C303.775 200.806 305.762 201.005 307.578 201.459C308.529 201.622 309.502 201.884 310.39 202.273C310.888 202.454 311.256 202.564 311.753 202.744C312.251 202.924 312.574 202.838 313.05 202.919C313.287 202.96 313.458 202.705 313.305 202.537Z" fill="#E7EFF2"/>
<path d="M315.433 159.901C314.907 159.094 313.994 158.603 313.189 158.083C312.145 157.522 310.994 156.99 309.865 156.558C307.498 155.723 304.96 155.146 302.382 154.896C298.395 154.501 293.425 155.85 290.501 158.648C289.47 159.667 291.017 160.936 291.963 160.046C294.584 157.435 298.843 156.49 302.461 156.774C304.801 156.983 306.992 157.549 309.206 158.214C310.205 158.576 311.203 158.938 312.225 159.4C313.115 159.791 313.92 160.311 314.874 160.475C315.243 160.585 315.631 160.269 315.433 159.901Z" fill="#E7EFF2"/>
<path d="M312.765 223.411C312.258 233.476 311.841 243.405 311.334 253.47C310.69 266.138 309.562 278.824 308.549 291.479C307.988 298.1 307.403 304.616 306.956 311.207C306.827 312.245 308.645 312.204 308.773 311.165C309.676 299.097 310.555 286.924 311.32 274.782C312.108 262.745 313.011 250.677 313.546 238.596C313.73 233.527 313.915 228.457 313.616 223.405C313.611 222.849 312.76 222.854 312.765 223.411Z" fill="#D8E5E5"/>
<path d="M308.262 219.91C307.575 222.771 307.786 225.838 307.582 228.681C307.516 231.599 307.426 234.412 307.246 237.36C307 243.227 306.777 249.199 306.416 255.096C305.809 266.86 304.973 278.685 303.882 290.467C303.206 297.118 302.669 303.844 301.763 310.557C301.658 311.7 303.728 311.702 303.833 310.558C305.874 286.92 307.801 263.313 308.762 239.742C308.871 236.478 308.956 233.109 309.064 229.845C309.173 226.581 309.602 223.119 308.908 220.071C309.017 219.484 308.396 219.427 308.262 219.91Z" fill="#D8E5E5"/>
<path d="M299.702 219.789C299.292 222.797 299.249 225.818 299.068 228.765C298.887 231.711 298.73 234.763 298.549 237.71C298.072 243.634 297.596 249.558 296.866 255.438C295.636 267.138 294.063 278.93 293.086 290.674C292.547 297.395 292.123 304.085 291.814 310.744C291.709 311.887 293.751 311.783 293.741 310.671C293.731 298.859 295.118 286.783 296.324 274.978C297.645 263.142 299.104 251.381 299.942 239.564C300.142 236.166 300.481 232.843 300.566 229.476C300.676 226.214 300.876 222.817 300.504 219.573C300.637 219.091 299.836 219.307 299.702 219.789Z" fill="#D8E5E5"/>
<path d="M304.805 219.428C304.395 222.437 304.352 225.458 304.171 228.404C303.99 231.351 303.833 234.403 303.652 237.349C303.175 243.274 302.699 249.198 301.969 255.078C300.739 266.778 299.166 278.571 298.189 290.314C297.65 297.035 297.226 303.725 296.917 310.385C296.812 311.528 298.854 311.424 298.844 310.312C298.834 298.5 300.221 286.423 301.427 274.618C302.748 262.783 304.207 251.021 305.045 239.203C305.245 235.806 305.584 232.482 305.669 229.116C305.779 225.854 305.979 222.456 305.606 219.213C305.625 218.762 304.824 218.977 304.805 219.428Z" fill="#D8E5E5"/>
<path d="M300.003 222.989C299.68 233.332 299.563 243.508 298.758 253.87C297.872 265.479 296.504 277.107 295.274 288.809C294.469 296.495 293.663 304.181 292.719 311.792C292.591 312.83 294.543 312.863 294.648 311.72C295.906 298.003 297.417 284.331 298.813 270.689C299.823 260.161 300.833 249.632 301.247 239.153C301.475 233.741 301.68 228.223 300.853 222.983C300.733 222.458 300.022 222.538 300.003 222.989Z" fill="#D8E5E5"/>
<path d="M284.288 184.5C284.758 183.919 290.449 181.322 297.501 180.5M320.001 188.5C314.069 180.763 305.013 179.624 297.501 180.5M297.501 0V180.5" stroke="#0D0842"/>
<path d="M389.715 216.327C389.776 211.751 392.607 207.884 396.212 207.643L404.857 207.045C408.35 206.841 411.18 210.38 411.203 214.816L410.59 277.558L412.392 277.438C412.773 276.177 412.928 274.988 413.025 273.59L414.55 117.363C414.571 111.774 411.252 107.366 407.168 107.645L395.987 108.37C391.903 108.649 388.462 113.394 388.441 118.984L386.917 275.211C386.932 276.573 387.06 277.9 387.383 279.049L389.185 278.929L389.715 216.327Z" fill="#60C697"/>
<path d="M390.96 216.784C391.02 212.218 393.837 208.36 397.423 208.12L406.025 207.523C409.5 207.319 412.315 210.85 412.338 215.276L411.752 277.529L414.133 277.334L415.033 178.378C415.054 172.802 411.751 168.404 407.688 168.682L396.565 169.405C392.502 169.684 389.078 174.419 389.057 179.996L388.158 278.952L390.539 278.757L390.96 216.784Z" fill="#60C697"/>
<path d="M411.67 276.6L412.607 180.738C412.609 175.959 409.871 172.285 406.278 172.526L397.661 173.123C394.181 173.327 391.276 177.328 391.162 182.143L390.226 278.005C390.226 278.005 394.191 273.436 400.87 272.891C407.997 272.202 411.67 276.6 411.67 276.6Z" fill="#E7EFF2"/>
<path d="M410.488 170.053C410.248 173.563 410.492 177.035 410.478 180.473C410.465 183.911 410.739 187.488 411.096 190.924C411.583 197.867 411.986 204.952 412.103 211.898C412.51 225.964 412.177 240.035 411.503 254.214C411.178 262.216 410.596 270.184 410.013 278.153C409.821 280.961 414.318 280.683 414.51 277.875C416.455 249.443 417.546 221.052 415.508 192.963C415.259 189.035 414.866 185.038 414.133 181.149C413.71 179.222 413.203 177.437 412.779 175.51C412.356 173.583 411.963 171.762 411.312 169.907C411.163 169.381 410.453 169.492 410.488 170.053Z" fill="#60C697"/>
<path d="M387.868 112.74C388.268 112.506 388.561 112.305 388.99 112.169L388.962 112.07C388.561 112.305 388.161 112.539 387.868 112.74C387.789 112.873 387.76 112.774 387.868 112.74Z" fill="#F3B953"/>
<path d="M392.238 110.331C390.207 111.433 388.926 113.44 388.555 115.616C388.047 118.177 387.765 120.668 387.483 123.158C386.812 128.629 386.284 134.17 385.869 139.675C385.128 150.999 384.982 162.249 384.949 173.463C384.833 184.818 385.056 196.065 384.797 207.35C384.568 218.741 384.565 230.06 384.848 241.516C385.009 247.753 385.088 254.13 385.505 260.399C385.658 263.552 385.953 266.774 386.105 269.926C386.287 273.184 386.385 276.582 387.133 279.66C387.673 282.004 391.126 281.137 391.324 278.788C391.63 275.947 391.34 273.181 391.194 270.484C391.017 267.682 390.984 264.949 390.921 262.111C390.711 256.575 390.501 251.04 390.404 245.469C390.097 234.363 390.017 223.185 390.193 212.04C390.398 201 390.377 190.032 390.469 179.028C390.418 167.955 390.397 156.987 390.829 145.875C391.066 139.741 391.559 133.64 392.165 127.503C392.441 124.557 392.943 121.54 393.303 118.453C393.405 117.506 393.477 116.454 393.609 115.612C393.824 114.63 393.67 113.65 394.426 112.838C395.713 111.286 393.959 109.442 392.238 110.331Z" fill="#60C697"/>
<path d="M408.396 111.188C407.978 110.118 407.157 109.286 406.257 108.589C405.356 107.893 404.428 107.095 403.368 106.668C400.868 105.717 397.975 105.878 395.218 106.104C392.704 106.361 390.416 107.422 388.762 109.484C387.374 111.242 385.649 114.312 387.239 116.211C387.596 116.644 388.407 116.603 388.81 116.364C390.395 115.31 390.343 113.028 391.571 111.54C392.851 109.817 394.661 109.566 396.607 109.38C398.66 109.161 400.85 109.007 402.862 109.895C404.494 110.686 405.92 112.419 408.026 111.964C408.241 111.895 408.452 111.389 408.396 111.188Z" fill="#60C697"/>
<path d="M400.867 109.801C402.995 109.015 405.464 110.296 406.737 111.727C408.387 113.611 408.709 116.487 408.828 119.083C409.198 125.609 409.226 132.243 409.368 138.84C409.599 152.282 409.459 165.726 409.092 179.241C409.025 182.927 408.845 186.649 408.778 190.335C408.688 192.196 408.712 194.021 408.622 195.882C408.634 196.794 408.675 197.812 408.801 198.688C408.956 199.67 409.452 200.544 409.637 201.631C409.792 202.613 411.472 202.426 411.718 201.547C411.963 200.667 412.352 199.857 412.597 198.978C412.842 198.099 412.914 197.046 412.903 196.133C412.993 194.272 412.969 192.447 413.059 190.586C413.155 187.006 413.138 183.461 413.264 179.985C413.344 172.859 413.453 165.839 413.418 158.749C413.467 151.518 413.403 144.323 413.309 137.023C413.291 133.478 413.161 129.969 413.03 126.46C412.959 123.161 412.888 119.863 412.476 116.671C412.064 113.48 411.024 110.258 408.46 108.205C405.955 106.362 402.756 105.998 399.988 108.017C399.025 108.55 399.617 110.196 400.867 109.801Z" fill="#60C697"/>
<path d="M412.389 184.23C412.972 182.487 412.68 180.583 412.445 178.883C412.101 177.218 411.482 175.419 410.513 174.067C408.131 170.618 404.299 169.635 400.202 169.404C398.154 169.288 396.105 169.173 394.117 169.704C391.912 170.305 390.236 171.957 388.971 173.808C386.736 176.862 383.358 183.06 386.853 185.817C387.458 186.287 388.523 186.277 389.006 185.454C389.461 184.53 389.674 184.017 389.883 183.062C390.039 182.345 390.277 181.491 390.542 180.739C391.045 179.134 391.85 177.763 392.764 176.358C393.517 175.227 394.355 174.401 395.69 174.081C397.27 173.792 398.964 173.911 400.521 173.964C403.416 174.139 405.743 174.83 407.35 177.198C408.82 179.499 408.96 182.562 410.591 184.589C411.007 185.232 412.043 185.119 412.389 184.23Z" fill="#60C697"/>
<path d="M408.131 163.058C408.298 161.994 408.457 160.484 407.84 159.556C408.105 159.248 408.262 158.974 408.145 158.561C407.48 156.637 405.46 156.152 403.685 155.701C401.803 155.284 399.9 155.211 397.949 155.377C396.105 155.51 393.829 155.779 392.22 156.736C389.993 158 390.941 160.508 391.361 162.397C391.596 163.221 392.507 163.945 393.429 163.878C395.489 163.678 397.715 163.649 399.725 163.689C401.736 163.728 403.991 163.803 405.932 164.425C406.726 164.736 407.933 164.019 408.131 163.058Z" fill="#E7EFF2"/>
<path d="M393.841 112.467C393.146 113.487 393.192 114.956 393.036 116.146C392.939 117.546 392.813 118.841 392.829 120.205C392.719 122.864 392.668 125.733 393.037 128.353C393.343 130.309 396.33 129.585 396.421 127.73C396.532 125.071 396.162 122.451 396.047 119.864C395.948 118.641 395.932 117.277 395.833 116.054C395.763 114.935 395.747 113.571 395.198 112.491C394.908 111.899 394.174 111.905 393.841 112.467Z" fill="#E7EFF2"/>
<path d="M398.765 112.601C397.313 116.14 397.447 120.539 397.966 124.131C398.118 125.107 398.689 125.835 399.758 125.721C400.602 125.679 401.578 124.798 401.568 123.89C401.406 122.006 401.214 120.017 401.164 118.097C401.115 116.177 401.065 114.257 400.678 112.445C400.414 111.505 399.151 111.795 398.765 112.601Z" fill="#E7EFF2"/>
<path d="M403.511 112.573C402.803 114.852 403.06 117.508 402.974 119.817C402.931 120.971 403.03 122.195 403.017 123.454C403.003 124.713 402.96 125.867 403.539 127.052C404 127.817 405.357 127.841 405.826 126.893C406.349 125.7 406.309 124.686 406.352 123.531C406.366 122.272 406.379 121.013 406.251 119.685C406.082 117.343 406.305 114.648 405.461 112.522C405.053 111.511 403.839 111.556 403.511 112.573Z" fill="#E7EFF2"/>
<path d="M406.177 179.959C405.961 183.118 406.175 186.485 406.215 189.677C406.226 192.764 406.35 195.815 406.361 198.902C406.412 205.182 406.607 211.53 406.658 217.809C406.844 230.227 406.433 242.719 406.363 255.104C406.282 262.226 406.172 269.243 405.948 276.296C405.912 277.91 408.473 277.787 408.51 276.173C408.777 263.612 408.902 250.981 408.769 238.317C408.718 232.038 408.523 225.69 408.472 219.41C408.421 213.131 408.37 206.852 408.175 200.503C408.045 196.996 407.915 193.489 407.785 189.981C407.685 186.579 407.668 183.036 407.228 179.741C407.163 179.075 406.142 179.398 406.177 179.959Z" fill="#D8E5E5"/>
<path d="M402.149 175.632C402.162 201.38 402.175 227.128 401.932 252.842C401.881 260.069 401.83 267.296 401.779 274.522C401.743 276.136 404.274 275.908 404.34 274.399C404.44 248.615 404.201 222.939 403.818 197.194C403.725 189.898 403.549 182.743 403.343 175.483C403.165 174.853 402.084 174.966 402.149 175.632Z" fill="#D8E5E5"/>
<path d="M397.922 177.691C397.05 180.714 397.377 184.045 397.357 187.027C397.368 190.114 397.379 193.201 397.389 196.287C397.357 202.707 397.438 209.091 397.405 215.511C397.394 228.105 397.299 240.839 397.288 253.433C397.237 260.66 397.157 267.782 397.106 275.008C397.099 276.727 399.774 276.568 399.78 274.849C400 249.485 399.849 224.123 399.442 198.728C399.425 195.186 399.295 191.678 399.279 188.136C399.256 186.312 399.263 184.593 399.126 182.804C398.989 181.016 398.996 179.297 398.519 177.617C398.46 177.407 398.09 177.41 397.922 177.691Z" fill="#D8E5E5"/>
<path d="M394.747 182.886C394.567 184.431 394.328 185.766 394.261 187.274C394.195 188.783 394.015 190.328 393.979 191.942C393.846 194.96 393.714 197.978 393.581 200.996C393.4 206.891 393.189 212.681 393.234 218.504C393.128 230.327 393.278 242.184 393.542 254.004C393.599 260.739 393.799 267.544 394.083 274.207C394.071 275.47 396.149 275.385 396.018 274.053C395.12 250.415 395.332 226.768 395.401 203.053C395.415 199.615 395.458 196.282 395.358 192.88C395.364 191.161 395.371 189.442 395.407 187.828C395.414 186.109 395.307 184.426 395.2 182.742C395.171 182.637 394.8 182.64 394.747 182.886Z" fill="#D8E5E5"/>
<path d="M384.081 145C384.081 145 390.11 140.394 397.788 139.743M412.788 145C407.842 140.434 402.504 139.343 397.788 139.743M397.788 1V139.743" stroke="#0D0842"/>
<path d="M470.37 312.295L462.344 208.326C461.9 203.226 461.869 193.225 466.921 192.674L483.492 191.039C488.544 190.488 493.494 200.084 493.939 205.184L501.113 309.088C501.113 309.088 495.086 305.123 485.387 305.922C475.266 306.755 470.37 312.295 470.37 312.295Z" fill="#E7EFF2"/>
<path d="M488.266 129.908C484.538 126.128 476.984 123.589 470.888 124.19C465.901 124.707 454.582 130.856 453.558 136.624C453.194 137.465 452.985 138.565 452.898 139.385C452.62 141.574 452.62 143.741 452.49 146.055C452.489 152.558 452.765 159.041 453.18 165.512C453.924 179.275 455.222 192.996 455.966 206.759C456.761 219.163 457.843 231.681 459.055 244.053C460.25 256.156 461.306 268.269 462.362 280.383C462.916 286.844 463.739 293.149 464.709 299.578C464.96 301.32 465.203 302.928 465.593 304.659C465.602 304.794 465.619 305.064 465.628 305.199C465.835 308.434 466.181 311.66 467.352 314.687C467.855 316.003 469.121 316.177 470.448 315.127C470.977 314.681 471.107 312.367 471.073 311.828L462.634 210.721C462.548 209.372 462.453 207.889 462.366 206.541C462.497 202.06 466.955 197.655 474.579 194.769C483.156 191.539 490.006 198.332 491.602 201.462C492.061 204.272 492.529 207.217 492.988 210.027L494.667 229.68C494.684 229.95 494.693 230.085 494.71 230.354C495.039 235.478 495.376 240.736 495.844 245.849C496.64 256.085 497.575 266.311 498.371 276.547C498.882 282.334 499.262 288.267 499.634 294.064C500.023 300.132 500.126 306.085 500.793 312.131C501.088 314.548 504.548 314.148 504.678 311.835C504.757 306.544 504.411 301.151 504.065 295.758C503.728 290.5 503.391 285.242 502.915 279.994C502.11 269.623 501.175 259.397 500.37 249.026C499.574 238.79 499.055 228.532 498.398 218.285C498.268 216.263 498.008 214.386 497.74 212.374C498.304 210.299 498.001 207.747 497.863 205.59C497.559 203.039 497.118 200.499 496.945 197.802C496.399 191.476 496.556 185.231 496.15 178.894C495.337 166.22 493.821 153.465 492.453 140.833C492.116 137.743 491.639 134.663 489.94 132.083C489.48 131.441 489.021 130.798 488.57 130.291C488.422 130.167 488.414 130.032 488.266 129.908Z" fill="#F46041"/>
<path d="M466.659 205.062C467.059 217.788 469.26 230.382 470.4 242.918C471.03 250.064 471.35 257.097 471.679 264.264C471.999 271.297 472.469 278.319 472.789 285.352C473.182 293.464 473.724 301.566 474.117 309.679C474.189 310.76 476.14 310.617 476.067 309.537C475.268 295.347 474.469 281.158 473.819 266.957C473.056 253.308 472.434 239.513 470.471 225.951C469.4 218.973 468.18 212.006 467.419 205.142C467.383 204.602 466.632 204.656 466.659 205.062Z" fill="#D8E5E5"/>
<path d="M471.498 198.208C471.142 201.897 471.677 205.386 472.071 209.021C472.457 212.521 472.842 216.021 473.086 219.667C473.866 226.802 474.496 233.948 474.975 241.105C476.216 255.126 477.166 269.305 478.258 283.337C478.809 291.574 479.202 299.687 480.054 307.903C480.118 308.848 481.769 308.727 481.705 307.782C481.037 293.311 479.769 278.884 478.651 264.447C477.56 250.414 476.46 236.247 475.068 222.236C474.647 218.196 474.375 214.145 473.954 210.105C473.541 206.2 473.27 202.149 472.107 198.299C472.08 197.894 471.63 197.927 471.498 198.208Z" fill="#D8E5E5"/>
<path d="M469.975 197.276C470.798 211.737 472.523 226.131 473.647 240.57C474.762 254.873 475.566 269.063 476.23 283.399C476.634 291.648 476.889 299.907 477.293 308.156C477.366 309.236 479.321 309.094 479.248 308.013C478.062 279.195 476.877 250.377 473.887 221.69C473.031 213.474 472.025 205.269 470.727 197.222C470.55 196.827 469.948 196.871 469.975 197.276Z" fill="#D8E5E5"/>
<path d="M474.752 197.906C474.845 201.563 475.686 205.165 476.078 208.799C476.47 212.434 477.011 216.057 477.403 219.692C478.17 226.691 478.936 233.69 479.402 240.712C480.486 254.743 481.129 268.943 481.913 282.996C482.293 290.973 482.832 299.075 483.361 307.041C483.442 308.256 485.537 308.102 485.456 306.887C483.412 278.408 483.023 249.943 479.782 221.552C479.363 217.512 478.795 213.484 478.226 209.455C477.667 205.561 477.089 201.398 475.94 197.683C475.596 197.03 474.707 197.231 474.752 197.906Z" fill="#D8E5E5"/>
<path d="M481.059 200.297C480.845 203.841 481.242 207.476 481.488 211.122C481.726 214.633 481.972 218.28 482.36 221.78C482.985 228.791 483.619 235.938 484.094 242.96C485.185 256.859 486.284 270.892 487.224 284.802C487.489 288.718 487.754 292.635 487.868 296.562C488.005 298.587 487.982 300.489 488.119 302.515C488.256 304.54 488.242 306.577 488.68 308.581C488.867 309.11 489.771 309.044 489.885 308.493C490.409 305.063 489.862 301.438 489.784 298.051C489.547 294.54 489.451 290.883 489.214 287.372C488.739 280.349 488.255 273.192 487.781 266.17C486.672 252.001 485.572 237.967 484.313 223.81C484.048 219.893 483.633 215.988 483.218 212.082C482.802 208.177 482.679 204.115 481.803 200.107C481.776 199.702 481.182 199.881 481.059 200.297Z" fill="#D8E5E5"/>
<path d="M453.6 168.5C453.6 168.5 461.881 159.794 473.6 159.403M494.6 168.5C487.11 161.359 479.864 159.193 473.6 159.403M473.6 159.403V0" stroke="#0D0842"/>
<path d="M566.994 312.974L572.41 221.256C572.692 216.744 569.004 211.974 564.087 211.195C561.257 210.739 553.818 210.863 550.467 211.767C545.353 213.259 544.442 217.607 543.348 221.673L537.931 313.391C537.931 313.391 543.507 309.225 552.692 308.962C562.213 308.61 566.994 312.974 566.994 312.974Z" fill="#E7EFF2"/>
<path d="M536.839 314.79C536.914 313.548 536.965 312.202 537.04 310.96C537.238 308.686 537.299 306.338 537.497 304.063C537.793 300.652 537.977 297.272 538.249 293.756C538.753 287.068 539.121 280.307 539.625 273.619C540.469 261.621 541.549 228.128 542.165 221.411C543.288 210.115 567.434 208.05 570.766 219.589C571.14 220.709 570.08 239.095 569.886 243.478L568.768 262.657C568.155 271.483 567.406 280.235 566.658 288.987C566.28 293.087 566.014 297.156 565.749 301.225C565.459 305.189 565.441 309.303 564.792 313.253C564.581 314.42 565.875 315.404 567.043 315.312C568.296 315.143 569.661 314.273 569.536 313.196C569.224 309.727 569.585 306.076 569.721 302.486C569.858 298.896 570.106 295.276 570.331 291.551C570.805 284.205 571.278 276.86 571.864 269.484C572.65 258.279 573.637 246.909 573.592 235.706L574.665 218.427L578.065 161.101C578.337 157.585 576.457 154.538 573.581 152.87C573.014 152.468 572.471 152.17 572.039 151.842C570.386 150.844 568.532 150.011 566.614 149.418C562.889 148.201 558.723 147.658 554.658 148.087C550.346 148.472 546.318 150.112 544.453 153.946C544.3 154.321 544.035 154.725 543.906 155.204C542.629 157.436 541.983 159.831 541.562 162.165C541.052 164.635 540.654 167.074 540.504 169.557C540.004 174.689 539.728 179.76 539.364 184.966C538.659 195.483 538.066 205.97 537.449 216.352C536.152 237.356 534.989 258.434 533.692 279.438C532.912 291.197 532.02 302.985 531.488 314.788C531.256 317.96 536.72 317.931 536.839 314.79Z" fill="#F6CF3C"/>
<path d="M567.305 202.537C567 202.2 567.063 201.974 566.672 201.765C566.26 201.458 565.762 201.278 565.242 200.999C564.354 200.61 563.358 200.249 562.385 199.988C560.308 199.394 557.999 199.282 555.734 199.367C553.577 199.423 551.272 199.832 549.142 200.509C548.066 200.798 547.035 201.284 546.111 201.741C545.295 202.169 543.919 202.643 543.646 203.449C543.52 203.901 543.803 204.139 544.278 204.22C545.099 204.314 546.063 203.532 546.771 203.133C547.695 202.675 548.641 202.317 549.717 202.028C551.632 201.41 553.721 201.058 555.748 200.932C557.775 200.806 559.762 201.005 561.578 201.459C562.529 201.622 563.502 201.884 564.39 202.273C564.888 202.454 565.256 202.564 565.753 202.744C566.251 202.924 566.574 202.838 567.05 202.919C567.287 202.96 567.458 202.705 567.305 202.537Z" fill="#E7EFF2"/>
<path d="M569.433 159.901C568.907 159.094 567.994 158.603 567.189 158.083C566.145 157.522 564.994 156.99 563.865 156.558C561.498 155.723 558.96 155.146 556.382 154.896C552.395 154.501 547.425 155.85 544.501 158.648C543.47 159.667 545.017 160.936 545.963 160.046C548.584 157.435 552.843 156.49 556.461 156.774C558.801 156.983 560.992 157.549 563.206 158.214C564.205 158.576 565.203 158.938 566.225 159.4C567.115 159.791 567.92 160.311 568.874 160.475C569.243 160.585 569.631 160.269 569.433 159.901Z" fill="#E7EFF2"/>
<path d="M559.765 223.411C559.258 233.476 558.841 243.405 558.334 253.47C557.69 266.138 556.562 278.824 555.549 291.479C554.988 298.1 554.403 304.616 553.956 311.207C553.827 312.245 555.645 312.204 555.773 311.165C556.676 299.097 557.555 286.924 558.32 274.782C559.108 262.745 560.011 250.677 560.546 238.596C560.73 233.527 560.915 228.457 560.616 223.405C560.611 222.849 559.76 222.854 559.765 223.411Z" fill="#D8E5E5"/>
<path d="M555.262 219.91C554.575 222.771 554.786 225.838 554.582 228.681C554.516 231.599 554.426 234.412 554.246 237.36C554 243.227 553.777 249.199 553.416 255.096C552.809 266.86 551.973 278.685 550.882 290.467C550.206 297.118 549.669 303.844 548.763 310.557C548.658 311.7 550.728 311.702 550.833 310.558C552.874 286.92 554.801 263.313 555.762 239.742C555.871 236.478 555.956 233.109 556.064 229.845C556.173 226.581 556.602 223.119 555.908 220.071C556.017 219.484 555.396 219.427 555.262 219.91Z" fill="#D8E5E5"/>
<path d="M553.702 219.789C553.292 222.797 553.249 225.818 553.068 228.765C552.887 231.711 552.73 234.763 552.549 237.71C552.072 243.634 551.596 249.558 550.866 255.438C549.636 267.138 548.063 278.93 547.086 290.674C546.547 297.395 546.123 304.085 545.814 310.744C545.709 311.887 547.751 311.783 547.741 310.671C547.731 298.859 549.118 286.783 550.324 274.978C551.645 263.142 553.104 251.381 553.942 239.564C554.142 236.166 554.481 232.843 554.566 229.476C554.676 226.214 554.876 222.817 554.504 219.573C554.637 219.091 553.836 219.307 553.702 219.789Z" fill="#D8E5E5"/>
<path d="M558.805 219.428C558.395 222.437 558.352 225.458 558.171 228.404C557.99 231.351 557.833 234.403 557.652 237.349C557.175 243.274 556.699 249.198 555.969 255.078C554.739 266.778 553.166 278.571 552.189 290.314C551.65 297.035 551.226 303.725 550.917 310.385C550.812 311.528 552.854 311.424 552.844 310.312C552.834 298.5 554.221 286.423 555.427 274.618C556.748 262.783 558.207 251.021 559.045 239.203C559.245 235.806 559.584 232.482 559.669 229.116C559.779 225.854 559.979 222.456 559.606 219.213C559.625 218.762 558.824 218.977 558.805 219.428Z" fill="#D8E5E5"/>
<path d="M548.003 222.989C547.68 233.332 547.563 243.508 546.758 253.87C545.872 265.479 544.504 277.107 543.274 288.809C542.469 296.495 541.663 304.181 540.719 311.792C540.591 312.83 542.543 312.863 542.648 311.72C543.906 298.003 545.417 284.331 546.813 270.689C547.823 260.161 548.833 249.632 549.247 239.153C549.475 233.741 549.68 228.223 548.853 222.983C548.733 222.458 548.022 222.538 548.003 222.989Z" fill="#D8E5E5"/>
<path d="M538.288 184.5C538.758 183.919 544.449 181.322 551.501 180.5M574.001 188.5C568.069 180.763 559.013 179.624 551.501 180.5M551.501 0V180.5" stroke="#0D0842"/>
<path d="M637.716 216.327C637.777 211.751 640.608 207.884 644.213 207.643L652.858 207.045C656.351 206.841 659.181 210.38 659.204 214.816L658.591 277.558L660.393 277.438C660.774 276.177 660.929 274.988 661.026 273.59L662.551 117.363C662.572 111.774 659.253 107.366 655.169 107.645L643.988 108.37C639.904 108.649 636.463 113.394 636.442 118.984L634.918 275.211C634.933 276.573 635.061 277.9 635.384 279.049L637.186 278.929L637.716 216.327Z" fill="#60C697"/>
<path d="M638.961 216.784C639.021 212.218 641.838 208.36 645.424 208.12L654.026 207.523C657.501 207.319 660.316 210.85 660.339 215.276L659.753 277.529L662.134 277.334L663.033 178.378C663.055 172.802 659.752 168.404 655.689 168.682L644.566 169.405C640.503 169.684 637.079 174.419 637.058 179.996L636.159 278.952L638.54 278.757L638.961 216.784Z" fill="#60C697"/>
<path d="M659.671 276.6L660.608 180.738C660.61 175.959 657.872 172.285 654.279 172.526L645.662 173.123C642.182 173.327 639.277 177.328 639.163 182.143L638.227 278.005C638.227 278.005 642.192 273.436 648.871 272.891C655.998 272.202 659.671 276.6 659.671 276.6Z" fill="#E7EFF2"/>
<path d="M658.489 170.053C658.249 173.563 658.493 177.035 658.479 180.473C658.466 183.911 658.74 187.488 659.097 190.924C659.584 197.867 659.987 204.952 660.104 211.898C660.511 225.964 660.178 240.035 659.504 254.214C659.179 262.216 658.597 270.184 658.014 278.153C657.822 280.961 662.319 280.683 662.511 277.875C664.456 249.443 665.547 221.052 663.509 192.963C663.26 189.035 662.867 185.038 662.134 181.149C661.711 179.222 661.204 177.437 660.78 175.51C660.357 173.583 659.964 171.762 659.313 169.907C659.164 169.381 658.453 169.492 658.489 170.053Z" fill="#60C697"/>
<path d="M642.869 112.74C643.269 112.506 643.562 112.305 643.991 112.169L643.963 112.07C643.562 112.305 643.162 112.539 642.869 112.74C642.79 112.873 642.761 112.774 642.869 112.74Z" fill="#F3B953"/>
<path d="M647.239 110.331C645.208 111.433 643.927 113.44 643.556 115.616C643.048 118.177 642.766 120.668 642.484 123.158C641.813 128.629 641.285 134.17 640.87 139.675C640.129 150.999 639.983 162.249 639.95 173.463C639.834 184.818 640.057 196.065 639.798 207.35C639.569 218.741 639.566 230.06 639.849 241.516C640.01 247.753 640.089 254.13 640.506 260.399C640.659 263.552 640.954 266.774 641.106 269.926C641.288 273.184 641.386 276.582 642.134 279.66C642.674 282.004 646.127 281.137 646.325 278.788C646.631 275.947 646.341 273.181 646.195 270.484C646.018 267.682 645.985 264.949 645.922 262.111C645.712 256.575 645.502 251.04 645.405 245.469C645.098 234.363 645.018 223.185 645.194 212.04C645.399 201 645.378 190.032 645.47 179.028C645.419 167.955 645.398 156.987 645.83 145.875C646.067 139.741 646.559 133.64 647.166 127.503C647.442 124.557 647.944 121.54 648.304 118.453C648.406 117.506 648.478 116.454 648.61 115.612C648.825 114.63 648.671 113.65 649.427 112.838C650.714 111.286 648.96 109.442 647.239 110.331Z" fill="#60C697"/>
<path d="M656.397 111.188C655.979 110.118 655.158 109.286 654.258 108.589C653.357 107.893 652.429 107.095 651.369 106.668C648.869 105.717 645.976 105.878 643.219 106.104C640.705 106.361 638.417 107.422 636.763 109.484C635.375 111.242 633.65 114.312 635.24 116.211C635.597 116.644 636.408 116.603 636.811 116.364C638.396 115.31 638.344 113.028 639.572 111.54C640.852 109.817 642.662 109.566 644.608 109.38C646.661 109.161 648.851 109.007 650.863 109.895C652.495 110.686 653.921 112.419 656.027 111.964C656.242 111.895 656.453 111.389 656.397 111.188Z" fill="#60C697"/>
<path d="M648.867 109.801C650.996 109.015 653.465 110.296 654.738 111.727C656.388 113.611 656.71 116.487 656.829 119.083C657.199 125.609 657.227 132.243 657.369 138.84C657.6 152.282 657.46 165.726 657.093 179.241C657.026 182.927 656.846 186.649 656.779 190.335C656.689 192.196 656.713 194.021 656.623 195.882C656.635 196.794 656.676 197.812 656.802 198.688C656.957 199.67 657.453 200.544 657.638 201.631C657.793 202.613 659.473 202.426 659.719 201.547C659.964 200.667 660.353 199.857 660.598 198.978C660.843 198.099 660.915 197.046 660.904 196.133C660.994 194.272 660.97 192.447 661.06 190.586C661.156 187.006 661.139 183.461 661.265 179.985C661.345 172.859 661.454 165.839 661.419 158.749C661.468 151.518 661.404 144.323 661.31 137.023C661.292 133.478 661.162 129.969 661.031 126.46C660.96 123.161 660.888 119.863 660.477 116.671C660.065 113.48 659.025 110.258 656.461 108.205C653.956 106.362 650.757 105.998 647.989 108.017C647.026 108.55 647.618 110.196 648.867 109.801Z" fill="#60C697"/>
<path d="M661.3 181.485C661.542 179.677 660.886 177.874 660.326 176.259C659.664 174.698 658.705 173.058 657.485 171.919C654.461 168.996 650.477 168.747 646.375 169.282C644.324 169.549 642.273 169.816 640.407 170.702C638.338 171.698 636.997 173.62 636.101 175.66C634.475 179.053 632.324 185.726 636.315 187.767C637.006 188.114 638.058 187.906 638.378 187.015C638.65 186.029 638.763 185.489 638.786 184.518C638.803 183.79 638.873 182.913 638.991 182.13C639.18 180.471 639.713 178.985 640.348 177.444C640.876 176.201 641.547 175.24 642.807 174.681C644.317 174.106 646.017 173.908 647.569 173.671C650.47 173.305 652.908 173.548 654.956 175.559C656.854 177.531 657.583 180.494 659.588 182.168C660.124 182.718 661.129 182.416 661.3 181.485Z" fill="#60C697"/>
<path d="M656.131 163.058C656.299 161.994 656.458 160.484 655.841 159.556C656.106 159.248 656.263 158.974 656.146 158.561C655.481 156.637 653.461 156.152 651.686 155.701C649.804 155.284 647.901 155.211 645.95 155.377C644.106 155.51 641.83 155.779 640.221 156.736C637.994 158 638.942 160.508 639.362 162.397C639.597 163.221 640.508 163.945 641.43 163.878C643.49 163.678 645.716 163.649 647.726 163.689C649.737 163.728 651.992 163.803 653.933 164.425C654.727 164.736 655.934 164.019 656.131 163.058Z" fill="#E7EFF2"/>
<path d="M641.842 112.467C641.147 113.487 641.193 114.956 641.037 116.146C640.94 117.546 640.814 118.841 640.83 120.205C640.72 122.864 640.669 125.733 641.038 128.353C641.344 130.309 644.331 129.585 644.422 127.73C644.532 125.071 644.163 122.451 644.048 119.864C643.949 118.641 643.933 117.277 643.834 116.054C643.764 114.935 643.748 113.571 643.199 112.491C642.909 111.899 642.175 111.905 641.842 112.467Z" fill="#E7EFF2"/>
<path d="M646.766 112.601C645.314 116.14 645.448 120.539 645.967 124.131C646.119 125.107 646.69 125.835 647.759 125.721C648.603 125.679 649.579 124.798 649.569 123.89C649.407 122.006 649.215 120.017 649.165 118.097C649.116 116.177 649.066 114.257 648.679 112.445C648.415 111.505 647.152 111.795 646.766 112.601Z" fill="#E7EFF2"/>
<path d="M651.512 112.573C650.804 114.852 651.061 117.508 650.975 119.817C650.932 120.971 651.031 122.195 651.018 123.454C651.004 124.713 650.961 125.867 651.54 127.052C652.001 127.817 653.358 127.841 653.827 126.893C654.35 125.7 654.31 124.686 654.353 123.531C654.367 122.272 654.38 121.013 654.252 119.685C654.083 117.343 654.306 114.648 653.462 112.522C653.054 111.511 651.84 111.556 651.512 112.573Z" fill="#E7EFF2"/>
<path d="M654.178 179.959C653.962 183.118 654.176 186.485 654.216 189.677C654.227 192.764 654.351 195.815 654.362 198.902C654.413 205.182 654.608 211.53 654.659 217.809C654.845 230.227 654.434 242.719 654.364 255.104C654.283 262.226 654.173 269.243 653.949 276.296C653.913 277.91 656.474 277.787 656.511 276.173C656.778 263.612 656.903 250.981 656.77 238.317C656.719 232.038 656.524 225.69 656.473 219.41C656.422 213.131 656.371 206.852 656.176 200.503C656.046 196.996 655.916 193.489 655.786 189.981C655.686 186.579 655.669 183.036 655.229 179.741C655.164 179.075 654.142 179.398 654.178 179.959Z" fill="#D8E5E5"/>
<path d="M650.15 175.632C650.163 201.38 650.176 227.128 649.933 252.842C649.882 260.069 649.831 267.296 649.78 274.522C649.744 276.136 652.275 275.908 652.341 274.399C652.441 248.615 652.202 222.939 651.819 197.194C651.726 189.898 651.55 182.743 651.344 175.483C651.166 174.853 650.085 174.966 650.15 175.632Z" fill="#D8E5E5"/>
<path d="M645.923 177.691C645.051 180.714 645.377 184.045 645.358 187.027C645.369 190.114 645.38 193.201 645.39 196.287C645.358 202.707 645.439 209.091 645.406 215.511C645.395 228.105 645.3 240.839 645.289 253.433C645.238 260.66 645.158 267.782 645.107 275.008C645.1 276.727 647.775 276.568 647.781 274.849C648.001 249.485 647.85 224.123 647.443 198.728C647.426 195.186 647.296 191.678 647.28 188.136C647.257 186.312 647.264 184.593 647.127 182.804C646.99 181.016 646.997 179.297 646.52 177.617C646.461 177.407 646.091 177.41 645.923 177.691Z" fill="#D8E5E5"/>
<path d="M642.748 182.886C642.568 184.431 642.329 185.766 642.262 187.274C642.196 188.783 642.016 190.328 641.98 191.942C641.847 194.96 641.715 197.978 641.582 200.996C641.401 206.891 641.19 212.681 641.235 218.504C641.129 230.327 641.279 242.184 641.543 254.004C641.6 260.739 641.8 267.544 642.084 274.207C642.072 275.47 644.15 275.385 644.019 274.053C643.121 250.415 643.333 226.768 643.402 203.053C643.416 199.615 643.459 196.282 643.359 192.88C643.365 191.161 643.372 189.442 643.408 187.828C643.415 186.109 643.308 184.426 643.201 182.742C643.172 182.637 642.801 182.64 642.748 182.886Z" fill="#D8E5E5"/>
<path d="M632.082 145C632.082 145 638.111 140.394 645.789 139.743M660.789 145C655.843 140.434 650.505 139.343 645.789 139.743M645.789 1V139.743" stroke="#0D0842"/>
<path d="M717.37 312.295L709.344 208.326C708.9 203.226 708.869 193.225 713.921 192.674L730.492 191.039C735.544 190.488 740.494 200.084 740.939 205.184L748.113 309.088C748.113 309.088 742.086 305.123 732.387 305.922C722.266 306.755 717.37 312.295 717.37 312.295Z" fill="#E7EFF2"/>
<path d="M735.266 129.908C731.538 126.128 723.984 123.589 717.888 124.19C712.901 124.707 701.582 130.856 700.558 136.624C700.194 137.465 699.985 138.565 699.898 139.385C699.62 141.574 699.62 143.741 699.49 146.055C699.489 152.558 699.765 159.041 700.18 165.512C700.924 179.275 702.222 192.996 702.966 206.759C703.761 219.163 704.843 231.681 706.055 244.053C707.25 256.156 708.306 268.269 709.362 280.383C709.916 286.844 710.739 293.149 711.709 299.578C711.96 301.32 712.203 302.928 712.593 304.659C712.602 304.794 712.619 305.064 712.628 305.199C712.835 308.434 713.181 311.66 714.352 314.687C714.855 316.003 716.121 316.177 717.448 315.127C717.977 314.681 718.107 312.367 718.073 311.828L709.634 210.721C709.548 209.372 709.453 207.889 709.366 206.541C709.497 202.06 713.955 197.655 721.579 194.769C730.156 191.539 737.006 198.332 738.602 201.462C739.061 204.272 739.529 207.217 739.988 210.027L741.667 229.68C741.684 229.95 741.693 230.085 741.71 230.354C742.039 235.478 742.376 240.736 742.844 245.849C743.64 256.085 744.575 266.311 745.371 276.547C745.882 282.334 746.262 288.267 746.634 294.064C747.023 300.132 747.126 306.085 747.793 312.131C748.088 314.548 751.548 314.148 751.678 311.835C751.757 306.544 751.411 301.151 751.065 295.758C750.728 290.5 750.391 285.242 749.915 279.994C749.11 269.623 748.175 259.397 747.37 249.026C746.574 238.79 746.055 228.532 745.398 218.285C745.268 216.263 745.008 214.386 744.74 212.374C745.304 210.299 745.001 207.747 744.863 205.59C744.559 203.039 744.118 200.499 743.945 197.802C743.399 191.476 743.556 185.231 743.15 178.894C742.337 166.22 740.821 153.465 739.453 140.833C739.116 137.743 738.639 134.663 736.94 132.083C736.48 131.441 736.021 130.798 735.57 130.291C735.422 130.167 735.414 130.032 735.266 129.908Z" fill="#F46041"/>
<path d="M713.659 205.062C714.059 217.788 716.26 230.382 717.4 242.918C718.03 250.064 718.35 257.097 718.679 264.264C718.999 271.297 719.469 278.319 719.789 285.352C720.182 293.464 720.724 301.566 721.117 309.679C721.189 310.76 723.14 310.617 723.067 309.537C722.268 295.347 721.469 281.158 720.819 266.957C720.056 253.308 719.434 239.513 717.471 225.951C716.4 218.973 715.18 212.006 714.419 205.142C714.383 204.602 713.632 204.656 713.659 205.062Z" fill="#D8E5E5"/>
<path d="M718.498 198.208C718.142 201.897 718.677 205.386 719.071 209.021C719.457 212.521 719.842 216.021 720.086 219.667C720.866 226.802 721.496 233.948 721.975 241.105C723.216 255.126 724.166 269.305 725.258 283.337C725.809 291.574 726.202 299.687 727.054 307.903C727.118 308.848 728.769 308.727 728.705 307.782C728.037 293.311 726.769 278.884 725.651 264.447C724.56 250.414 723.46 236.247 722.068 222.236C721.647 218.196 721.375 214.145 720.954 210.105C720.541 206.2 720.27 202.149 719.107 198.299C719.08 197.894 718.63 197.927 718.498 198.208Z" fill="#D8E5E5"/>
<path d="M723.975 197.276C724.798 211.737 726.523 226.131 727.647 240.57C728.762 254.873 729.566 269.063 730.23 283.399C730.634 291.648 730.889 299.907 731.293 308.156C731.366 309.236 733.321 309.094 733.248 308.013C732.062 279.195 730.877 250.377 727.887 221.69C727.031 213.474 726.025 205.269 724.727 197.222C724.55 196.827 723.948 196.871 723.975 197.276Z" fill="#D8E5E5"/>
<path d="M728.752 197.906C728.845 201.563 729.686 205.165 730.078 208.799C730.47 212.434 731.011 216.057 731.403 219.692C732.17 226.691 732.936 233.69 733.402 240.712C734.486 254.743 735.129 268.943 735.913 282.996C736.293 290.973 736.832 299.075 737.361 307.041C737.442 308.256 739.537 308.102 739.456 306.887C737.412 278.408 737.023 249.943 733.782 221.552C733.363 217.512 732.795 213.484 732.226 209.455C731.667 205.561 731.089 201.398 729.94 197.683C729.596 197.03 728.707 197.231 728.752 197.906Z" fill="#D8E5E5"/>
<path d="M735.059 200.297C734.845 203.841 735.242 207.476 735.488 211.122C735.726 214.633 735.972 218.28 736.36 221.78C736.985 228.791 737.619 235.938 738.094 242.96C739.185 256.859 740.284 270.892 741.224 284.802C741.489 288.718 741.754 292.635 741.868 296.562C742.005 298.587 741.982 300.489 742.119 302.515C742.256 304.54 742.242 306.577 742.68 308.581C742.867 309.11 743.771 309.044 743.885 308.493C744.409 305.063 743.862 301.438 743.784 298.051C743.547 294.54 743.451 290.883 743.214 287.372C742.739 280.349 742.255 273.192 741.781 266.17C740.672 252.001 739.572 237.967 738.313 223.81C738.048 219.893 737.633 215.988 737.218 212.082C736.802 208.177 736.679 204.115 735.803 200.107C735.776 199.702 735.182 199.881 735.059 200.297Z" fill="#D8E5E5"/>
<path d="M700.6 168.5C700.6 168.5 708.881 159.794 720.6 159.403M741.6 168.5C734.11 161.359 726.864 159.193 720.6 159.403M720.6 159.403V0" stroke="#0D0842"/>
</svg>
