<svg width="25" height="24" viewBox="0 0 25 24" fill="none" xmlns="http://www.w3.org/2000/svg">
<path d="M11.7021 9V6H8.70215V4H11.7021V1H13.7021V4H16.7021V6H13.7021V9H11.7021ZM7.70215 22C7.15215 22 6.68132 21.8042 6.28965 21.4125C5.89798 21.0208 5.70215 20.55 5.70215 20C5.70215 19.45 5.89798 18.9792 6.28965 18.5875C6.68132 18.1958 7.15215 18 7.70215 18C8.25215 18 8.72298 18.1958 9.11465 18.5875C9.50632 18.9792 9.70215 19.45 9.70215 20C9.70215 20.55 9.50632 21.0208 9.11465 21.4125C8.72298 21.8042 8.25215 22 7.70215 22ZM17.7021 22C17.1521 22 16.6813 21.8042 16.2896 21.4125C15.898 21.0208 15.7021 20.55 15.7021 20C15.7021 19.45 15.898 18.9792 16.2896 18.5875C16.6813 18.1958 17.1521 18 17.7021 18C18.2521 18 18.723 18.1958 19.1146 18.5875C19.5063 18.9792 19.7021 19.45 19.7021 20C19.7021 20.55 19.5063 21.0208 19.1146 21.4125C18.723 21.8042 18.2521 22 17.7021 22ZM1.70215 4V2H4.97715L9.22715 11H16.2271L20.1271 4H22.4021L18.0021 11.95C17.8188 12.2833 17.573 12.5417 17.2646 12.725C16.9563 12.9083 16.6188 13 16.2521 13H8.80215L7.70215 15H19.7021V17H7.70215C6.95215 17 6.38132 16.675 5.98965 16.025C5.59798 15.375 5.58548 14.7167 5.95215 14.05L7.30215 11.6L3.70215 4H1.70215Z" fill="white"/>
</svg>
