<svg width="12" height="12" viewBox="0 0 12 12" fill="none" xmlns="http://www.w3.org/2000/svg">
<path d="M5.67782 8.38262L1.17782 4.38263C1.07847 4.29504 1.01794 4.17161 1.0095 4.03944C1.00107 3.90726 1.04542 3.77714 1.13282 3.67763C1.22041 3.57829 1.34384 3.51775 1.47601 3.50932C1.60818 3.50088 1.73831 3.54523 1.83782 3.63263L6.00782 7.33763L10.1778 3.63263C10.2782 3.55182 10.4058 3.51285 10.5342 3.52386C10.6625 3.53487 10.7817 3.595 10.8668 3.69172C10.9519 3.78843 10.9964 3.91427 10.991 4.04299C10.9856 4.17171 10.9307 4.29338 10.8378 4.38263L6.33782 8.38262C6.24657 8.46278 6.12927 8.50699 6.00782 8.50699C5.88636 8.50699 5.76906 8.46278 5.67782 8.38262Z" fill="#8D28AD"/>
</svg>
