<svg width="22" height="18" viewBox="0 0 22 18" fill="none" xmlns="http://www.w3.org/2000/svg">
<path fill-rule="evenodd" clip-rule="evenodd" d="M19 2H3.00002C2.44774 2 2.00002 2.44772 2.00002 3V15C2.00002 15.5523 2.44774 16 3.00002 16H19C19.5523 16 20 15.5523 20 15V3C20 2.44772 19.5523 2 19 2ZM3.00002 0C1.34317 0 1.52588e-05 1.34315 1.52588e-05 3V15C1.52588e-05 16.6569 1.34317 18 3.00002 18H19C20.6569 18 22 16.6569 22 15V3C22 1.34315 20.6569 0 19 0H3.00002Z" fill="#6C5DD3"/>
<path fill-rule="evenodd" clip-rule="evenodd" d="M4.23173 4.3596C4.5853 3.93532 5.21586 3.878 5.64014 4.23156L10.3598 8.16458C10.7307 8.47358 11.2693 8.47358 11.6402 8.16458L16.3598 4.23156C16.7841 3.878 17.4147 3.93532 17.7682 4.3596C18.1218 4.78388 18.0645 5.41443 17.6402 5.768L12.9205 9.70097C11.808 10.6282 10.192 10.6282 9.07936 9.70097L4.35977 5.768C3.93549 5.41443 3.87817 4.78388 4.23173 4.3596Z" fill="#6C5DD3"/>
</svg>
