<svg width="16" height="17" viewBox="0 0 16 17" fill="none" xmlns="http://www.w3.org/2000/svg">
<path d="M4.83333 8.94008L10.1667 14.9401C10.2834 15.0725 10.448 15.1532 10.6242 15.1645C10.8005 15.1757 10.974 15.1166 11.1067 15.0001C11.2391 14.8833 11.3198 14.7187 11.3311 14.5425C11.3423 14.3663 11.2832 14.1928 11.1667 14.0601L6.22666 8.50008L11.1667 2.94008C11.2744 2.8063 11.3264 2.63608 11.3117 2.46493C11.297 2.29378 11.2168 2.1349 11.0879 2.02142C10.9589 1.90793 10.7911 1.84861 10.6195 1.85581C10.4479 1.86301 10.2857 1.93619 10.1667 2.06008L4.83333 8.06008C4.72645 8.18174 4.66751 8.33814 4.66751 8.50008C4.66751 8.66201 4.72645 8.81842 4.83333 8.94008Z" fill="#6C5DD3"/>
</svg>
