<svg width="64" height="64" viewBox="0 0 64 64" fill="none" xmlns="http://www.w3.org/2000/svg">
<path d="M30.8966 55.3696C30.8966 55.3696 25.3793 50.983 2.20691 48.8135V59.6609H24.2759C25.5173 57.1466 28.0571 55.5004 30.8966 55.3696Z" fill="#CEF0FF"/>
<path d="M33.1034 55.3696C33.1034 55.3696 38.6206 50.983 61.7931 48.8135V59.6609H39.7241C38.4827 57.1466 35.9428 55.5004 33.1034 55.3696Z" fill="#CEF0FF"/>
<path d="M2.20691 54.2373H16.5517V56.4068H2.20691V54.2373Z" fill="#58B1CC"/>
<path d="M47.4482 54.2373H61.7931V56.4068H47.4482V54.2373Z" fill="#58B1CC"/>
<path d="M43.0344 54.2373H45.2413V56.4068H43.0344V54.2373Z" fill="#58B1CC"/>
<path d="M30.8966 41.22C30.8966 41.22 45.2414 32.542 34.207 22.7793C23.1725 13.0166 21.3099 6.50819 23.1725 1.08447C23.1725 1.08447 9.25706 14.6978 22.069 26.0336C33.1035 35.7963 30.8966 41.22 30.8966 41.22Z" fill="#DCD0F7"/>
<path d="M39.7241 21.6946C39.7241 21.6946 31.327 16.6808 37.5172 11.9319C43.7074 7.18297 44.0792 3.72271 43.0344 1.08447C43.0344 1.08447 52.4294 8.58657 45.2413 14.1014C39.0511 18.8503 39.7241 21.6946 39.7241 21.6946Z" fill="#DCD0F7"/>
<path d="M32 29.2876H34.2069V31.4571H32V29.2876Z" fill="#D9176C"/>
<path d="M28.6897 26.0342H30.8966V28.2037H28.6897V26.0342Z" fill="#D9176C"/>
<path d="M58.4828 28.2032C56.6547 28.2032 55.1724 26.7461 55.1724 24.949C55.1724 24.35 54.6784 23.8643 54.069 23.8643C53.4596 23.8643 52.9656 24.35 52.9656 24.949C52.9656 26.7461 51.4833 28.2032 49.6552 28.2032C49.0458 28.2032 48.5518 28.6889 48.5518 29.288C48.5518 29.887 49.0458 30.3727 49.6552 30.3727C51.4833 30.3727 52.9656 31.8298 52.9656 33.6269C52.9656 34.226 53.4596 34.7117 54.069 34.7117C54.6784 34.7117 55.1724 34.226 55.1724 33.6269C55.1724 31.8298 56.6547 30.3727 58.4828 30.3727C59.0922 30.3727 59.5862 29.887 59.5862 29.288C59.5862 28.6889 59.0922 28.2032 58.4828 28.2032ZM54.069 30.4061C53.7473 29.9808 53.3643 29.6042 52.9316 29.288C53.3643 28.9718 53.7473 28.5952 54.069 28.1699C54.3907 28.5952 54.7737 28.9718 55.2064 29.288C54.7737 29.6042 54.3907 29.9808 54.069 30.4061Z" fill="#FFA451"/>
<path d="M22.069 39.0509C20.2408 39.0509 18.7586 37.5938 18.7586 35.7967C18.7586 35.1976 18.2646 34.7119 17.6552 34.7119C17.0458 34.7119 16.5517 35.1976 16.5517 35.7967C16.5517 37.5938 15.0695 39.0509 13.2414 39.0509C12.632 39.0509 12.1379 39.5366 12.1379 40.1356C12.1379 40.7347 12.632 41.2204 13.2414 41.2204C15.0695 41.2204 16.5517 42.6775 16.5517 44.4746C16.5517 45.0737 17.0458 45.5594 17.6552 45.5594C18.2646 45.5594 18.7586 45.0737 18.7586 44.4746C18.7586 42.6775 20.2408 41.2204 22.069 41.2204C22.6784 41.2204 23.1724 40.7347 23.1724 40.1356C23.1724 39.5366 22.6784 39.0509 22.069 39.0509ZM17.6552 41.2537C17.3335 40.8284 16.9504 40.4518 16.5178 40.1356C16.9504 39.8194 17.3335 39.4428 17.6552 39.0175C17.9768 39.4428 18.3599 39.8194 18.7926 40.1356C18.3599 40.4518 17.9768 40.8284 17.6552 41.2537Z" fill="#FFA451"/>
<path d="M36.4138 4.33897C34.5857 4.33897 33.1035 2.88188 33.1035 1.08474C33.1035 0.485698 32.6094 0 32 0C31.3907 0 30.8966 0.485698 30.8966 1.08474C30.8966 2.88188 29.4144 4.33897 27.5862 4.33897C26.9769 4.33897 26.4828 4.82467 26.4828 5.42372C26.4828 6.02276 26.9769 6.50846 27.5862 6.50846C29.4144 6.50846 30.8966 7.96555 30.8966 9.76269C30.8966 10.3617 31.3907 10.8474 32 10.8474C32.6094 10.8474 33.1035 10.3617 33.1035 9.76269C33.1035 7.96555 34.5857 6.50846 36.4138 6.50846C37.0232 6.50846 37.5173 6.02276 37.5173 5.42372C37.5173 4.82467 37.0232 4.33897 36.4138 4.33897ZM32 6.54183C31.6784 6.11651 31.2953 5.73992 30.8626 5.42372C31.2953 5.10751 31.6784 4.73092 32 4.3056C32.3217 4.73092 32.7048 5.10751 33.1374 5.42372C32.7048 5.73992 32.3217 6.11651 32 6.54183Z" fill="#FFA451"/>
<path d="M44.1379 20.6099H46.3448V22.7793H44.1379V20.6099Z" fill="#D9176C"/>
<path d="M44.1379 34.7119H46.3448V36.8814H44.1379V34.7119Z" fill="#D9176C"/>
<path d="M15.4484 29.2876H17.6553V31.4571H15.4484V29.2876Z" fill="#D9176C"/>
<path d="M26.4828 45.5591H28.6897V47.7286H26.4828V45.5591Z" fill="#D9176C"/>
<path d="M5.51721 40.1357H7.72411V42.3052H5.51721V40.1357Z" fill="#D9176C"/>
<path d="M41.931 43.3892C41.931 44.5873 40.9429 45.5587 39.7241 45.5587C38.5054 45.5587 37.5172 44.5873 37.5172 43.3892C37.5172 42.1911 38.5054 41.2197 39.7241 41.2197C40.9429 41.2197 41.931 42.1911 41.931 43.3892Z" fill="#87CEE9"/>
<path d="M12.1379 24.9493C12.1379 26.1474 11.1498 27.1188 9.93102 27.1188C8.71227 27.1188 7.72412 26.1474 7.72412 24.9493C7.72412 23.7512 8.71227 22.7798 9.93102 22.7798C11.1498 22.7798 12.1379 23.7512 12.1379 24.9493Z" fill="#87CEE9"/>
<path d="M57.3793 14.1016C57.3793 15.2997 56.3911 16.2711 55.1724 16.2711C53.9536 16.2711 52.9655 15.2997 52.9655 14.1016C52.9655 12.9035 53.9536 11.9321 55.1724 11.9321C56.3911 11.9321 57.3793 12.9035 57.3793 14.1016Z" fill="#87CEE9"/>
<path d="M36.4138 64.0002C36.4138 61.604 34.4375 59.6612 32 59.6612C29.5625 59.6612 27.5862 61.604 27.5862 64.0002H0V59.6612H24.2759C25.3793 57.4918 27.5862 55.3223 32 55.3223C36.4138 55.3223 38.6207 57.4918 39.7241 59.6612H64V64.0002H36.4138Z" fill="#8D28AD"/>
<path d="M0 59.6606H8.82759V63.9996H0V59.6606Z" fill="#5C067C"/>
<path d="M55.1724 59.6606H64V63.9996H55.1724V59.6606Z" fill="#5C067C"/>
</svg>
