<svg width="24" height="25" viewBox="0 0 24 25" fill="none" xmlns="http://www.w3.org/2000/svg">
<path d="M20.5205 4.77344C19.9937 4.24649 19.3682 3.82849 18.6797 3.5433C17.9913 3.25811 17.2535 3.11133 16.5083 3.11133C15.7632 3.11133 15.0253 3.25811 14.3369 3.5433C13.6485 3.82849 13.023 4.24649 12.4961 4.77344L12 5.26953L11.5039 4.77344C10.9771 4.24649 10.3516 3.82849 9.66315 3.5433C8.97473 3.25811 8.23687 3.11133 7.49172 3.11133C6.74656 3.11133 6.00871 3.25811 5.32028 3.5433C4.63186 3.82849 4.00636 4.24649 3.4795 4.77344C1.77833 6.47412 1.4815 9.09424 2.6865 11.7827C4.15526 15.061 11.0342 21.3608 11.3262 21.6274C11.5103 21.7955 11.7507 21.8886 12 21.8886C12.2493 21.8886 12.4896 21.7955 12.6738 21.6274C12.9658 21.3608 19.8447 15.061 21.3135 11.7822C22.5186 9.09424 22.2217 6.47412 20.5205 4.77344ZM19.4893 10.9644C18.5195 13.1274 14.2402 17.415 12 19.5244C9.75979 17.415 5.48147 13.1289 4.51075 10.9648C4.10255 10.0522 3.3213 7.75977 4.89356 6.1875C5.58264 5.49844 6.51722 5.11133 7.49171 5.11133C8.4662 5.11133 9.40078 5.49844 10.0899 6.1875L11.293 7.39063C11.3858 7.48351 11.4961 7.55719 11.6174 7.60745C11.7387 7.65772 11.8687 7.6836 12 7.6836C12.1314 7.6836 12.2614 7.65772 12.3827 7.60745C12.504 7.55719 12.6142 7.48351 12.7071 7.39063L13.9102 6.1875C14.6103 5.51967 15.5407 5.14709 16.5083 5.14709C17.4759 5.14709 18.4063 5.51967 19.1065 6.1875C20.6787 7.75977 19.8975 10.0522 19.4893 10.9644Z" fill="#374357"/>
</svg>
