<svg width="16" height="16" viewBox="0 0 16 16" fill="none" xmlns="http://www.w3.org/2000/svg">
<path d="M7.29301 1.2876C3.9872 1.2876 1.29431 3.98048 1.29431 7.28631C1.29431 10.5921 3.9872 13.2902 7.29301 13.2902C8.70502 13.2902 10.0036 12.7954 11.03 11.9738L13.5287 14.4712C13.6548 14.5921 13.8232 14.6588 13.9979 14.657C14.1725 14.6552 14.3395 14.5851 14.4631 14.4617C14.5867 14.3382 14.6571 14.1713 14.6591 13.9967C14.6611 13.822 14.5947 13.6535 14.474 13.5272L11.9753 11.0285C12.7976 10.0006 13.293 8.69995 13.293 7.28631C13.293 3.98048 10.5988 1.2876 7.29301 1.2876ZM7.29301 2.62095C9.87823 2.62095 11.9584 4.70108 11.9584 7.28631C11.9584 9.87153 9.87823 11.9569 7.29301 11.9569C4.70778 11.9569 2.62764 9.87153 2.62764 7.28631C2.62764 4.70108 4.70778 2.62095 7.29301 2.62095Z" fill="#8D28AD"/>
</svg>
