<svg width="148" height="163" viewBox="0 0 148 163" fill="none" xmlns="http://www.w3.org/2000/svg">
<path d="M36.0645 106.584L92.3901 124.7C99.6209 127.025 107.082 124.699 112.347 118.477C117.613 112.254 119.582 103.438 117.614 94.8939L102.283 28.3361C100.314 19.784 94.8156 13.2991 87.573 10.9877C80.3567 8.68565 72.9102 11.0171 67.6564 17.2253L26.6618 65.667C21.408 71.8752 19.435 80.6745 21.3831 89.2017C22.3625 93.4885 24.2291 97.2574 26.7584 100.246C29.2773 103.223 32.4524 105.424 36.0645 106.584Z" fill="#6153BB"/>
<path d="M23.9864 109.103L80.312 127.219C87.5428 129.544 95.0037 127.217 100.269 120.995C105.535 114.773 107.504 105.957 105.536 97.4124L90.205 30.8546C88.2358 22.3026 82.7374 15.8177 75.4949 13.5063C68.2786 11.2042 60.8321 13.5357 55.5783 19.7439L14.5837 68.1856C9.32991 74.3938 7.35688 83.193 9.30503 91.7203C10.2844 96.0071 12.151 99.776 14.6803 102.765C17.1992 105.741 20.3743 107.942 23.9864 109.103Z" fill="#FFAB7C"/>
</svg>
