<svg width="78" height="64" viewBox="0 0 78 64" fill="none" xmlns="http://www.w3.org/2000/svg">
<path d="M26.0818 22.1922L35.3717 28.3343C36.5642 29.1228 37.2762 30.5357 37.2762 32.1135C37.2762 33.6914 36.5642 35.1043 35.3717 35.8928L26.0818 42.0349C24.8882 42.8242 23.4639 42.8227 22.2714 42.0306C21.0832 41.2413 20.3736 39.83 20.3736 38.2557L20.3736 25.9714C20.3736 24.3971 21.0832 22.9858 22.2714 22.1965C22.8687 21.7997 23.5242 21.6015 24.18 21.6015C24.8331 21.6015 25.4862 21.7981 26.0818 22.1922Z" fill="#5A49CA"/>
<path d="M11.5518 22.1922L2.26196 28.3343C1.06941 29.1228 0.357422 30.5357 0.357422 32.1135C0.357422 33.6914 1.06941 35.1043 2.26196 35.8928L11.5518 42.0349C12.7454 42.8242 14.1697 42.8227 15.3623 42.0306C16.5504 41.2413 17.26 39.83 17.26 38.2557V25.9714C17.26 24.3971 16.5504 22.9858 15.3623 22.1965C14.765 21.7997 14.1095 21.6015 13.4536 21.6015C12.8005 21.6015 12.1474 21.7981 11.5518 22.1922Z" fill="#5A49CA"/>
<path d="M66.1142 22.1922L75.404 28.3343C76.5966 29.1228 77.3086 30.5357 77.3086 32.1135C77.3086 33.6914 76.5966 35.1043 75.404 35.8928L66.1142 42.0349C64.9206 42.8242 63.4963 42.8227 62.3037 42.0306C61.1156 41.2413 60.406 39.83 60.406 38.2557V25.9714C60.406 24.3971 61.1156 22.9858 62.3037 22.1965C62.901 21.7997 63.5565 21.6015 64.2123 21.6015C64.8655 21.6015 65.5186 21.7981 66.1142 22.1922Z" fill="#5A49CA"/>
<path d="M51.5842 22.1922L42.2943 28.3343C41.1018 29.1228 40.3898 30.5357 40.3898 32.1135C40.3898 33.6914 41.1018 35.1043 42.2943 35.8928L51.5842 42.0349C52.7778 42.8242 54.2021 42.8227 55.3946 42.0306C56.5827 41.2413 57.2923 39.83 57.2923 38.2557V25.9714C57.2923 24.3971 56.5827 22.9858 55.3946 22.1965C54.7973 21.7997 54.1418 21.6015 53.486 21.6015C52.8329 21.6015 52.1798 21.7981 51.5842 22.1922Z" fill="#5A49CA"/>
<path d="M31.568 21.0107L22.2782 14.8686C21.0856 14.0801 20.3736 12.6672 20.3736 11.0894C20.3736 9.51153 21.0856 8.09866 22.2782 7.31013L31.568 1.16801C32.7616 0.378698 34.1859 0.380262 35.3785 1.17231C36.5666 1.96163 37.2762 3.37293 37.2762 4.94726V17.2315C37.2762 18.8058 36.5666 20.2171 35.3785 21.0064C34.7812 21.4033 34.1257 21.6015 33.4699 21.6015C32.8167 21.6015 32.1636 21.4048 31.568 21.0107Z" fill="#5A49CA"/>
<path d="M31.5681 62.5336L22.2782 56.3915C21.0856 55.6029 20.3736 54.1901 20.3736 52.6122C20.3736 51.0344 21.0856 49.6215 22.2782 48.833L31.568 42.6909C32.7616 41.9015 34.1859 41.9031 35.3785 42.6952C36.5666 43.4845 37.2762 44.8958 37.2762 46.4701L37.2762 58.7543C37.2762 60.3287 36.5666 61.74 35.3785 62.5293C34.7812 62.9261 34.1257 63.1243 33.4699 63.1243C32.8168 63.1243 32.1636 62.9277 31.5681 62.5336Z" fill="#5A49CA"/>
<path d="M46.0979 21.0107L55.3878 14.8686C56.5804 14.0801 57.2924 12.6672 57.2924 11.0894C57.2924 9.51153 56.5804 8.09866 55.3878 7.31013L46.0979 1.16801C44.9044 0.378698 43.4801 0.380262 42.2875 1.17231C41.0994 1.96163 40.3898 3.37293 40.3898 4.94726V17.2315C40.3898 18.8058 41.0994 20.2171 42.2875 21.0064C42.8848 21.4033 43.5403 21.6015 44.1961 21.6015C44.8492 21.6015 45.5023 21.4048 46.0979 21.0107Z" fill="#5A49CA"/>
<path d="M46.0979 62.5336L55.3878 56.3915C56.5804 55.6029 57.2924 54.1901 57.2924 52.6122C57.2924 51.0344 56.5804 49.6215 55.3878 48.833L46.0979 42.6909C44.9044 41.9015 43.4801 41.9031 42.2875 42.6952C41.0994 43.4845 40.3898 44.8958 40.3898 46.4701V58.7543C40.3898 60.3287 41.0994 61.74 42.2875 62.5293C42.8848 62.9261 43.5403 63.1243 44.1961 63.1243C44.8492 63.1243 45.5024 62.9277 46.0979 62.5336Z" fill="#5A49CA"/>
</svg>
