<svg width="173" height="185" viewBox="0 0 173 185" fill="none" xmlns="http://www.w3.org/2000/svg">
<path d="M152.505 113.468L106.916 19.3045C101.063 7.21675 90.5764 -3.32453e-05 78.8651 -3.26404e-05C67.1538 -3.20355e-05 56.667 7.21675 50.8142 19.3045L5.22543 113.468C-0.633125 125.566 -0.621516 140.003 5.25735 152.091C11.1159 164.134 21.5911 171.326 33.2763 171.326L124.454 171.326C136.139 171.326 146.614 164.134 152.473 152.091C155.418 146.036 156.889 139.392 156.889 132.745C156.889 126.125 155.43 119.505 152.505 113.468Z" fill="#0D1CA9" fill-opacity="0.34"/>
<path d="M168.306 126.539L122.718 32.3758C116.865 20.288 106.378 13.0713 94.6668 13.0713C82.9555 13.0713 72.4687 20.288 66.616 32.3758L21.0272 126.539C15.1686 138.637 15.1802 153.074 21.0591 165.162C26.9177 177.205 37.3928 184.397 49.078 184.397L140.256 184.397C151.941 184.397 162.416 177.205 168.275 165.162C171.22 159.108 172.691 152.464 172.691 145.816C172.691 139.196 171.231 132.576 168.306 126.539Z" fill="#FFAB7C"/>
</svg>
